<svg xmlns="http://www.w3.org/2000/svg" version="1.1" xmlns:xlink="http://www.w3.org/1999/xlink" xmlns:svgjs="http://svgjs.dev/svgjs" width="1500" height="1500" viewBox="0 0 1500 1500"><rect width="1500" height="1500" fill="#ffffff"></rect><g transform="matrix(0.6666666666666666,0,0,0.6666666666666666,249.39393939393938,602.6050181967368)"><svg viewBox="0 0 396 116" data-background-color="#ffffff" preserveAspectRatio="xMidYMid meet" height="439" width="1500" xmlns="http://www.w3.org/2000/svg" xmlns:xlink="http://www.w3.org/1999/xlink"><g id="tight-bounds" transform="matrix(1,0,0,1,0.2400000000000091,0.42079005414075255)"><svg viewBox="0 0 395.52 115.15841989171847" height="115.15841989171847" width="395.52"><g><svg viewBox="0 0 395.52 115.15841989171847" height="115.15841989171847" width="395.52"><g><svg viewBox="0 0 395.52 115.15841989171847" height="115.15841989171847" width="395.52"><g id="textblocktransform"><svg viewBox="0 0 395.52 115.15841989171847" height="115.15841989171847" width="395.52" id="textblock"><g><svg viewBox="0 0 395.52 115.15841989171847" height="115.15841989171847" width="395.52"><g transform="matrix(1,0,0,1,0,0)"><svg width="395.52" viewBox="2.15 -34.99 121.74 35.45" height="115.15841989171847" data-palette-color="#000000"><path d="M32.32-5.79L32.32-5.79Q33.33-5.79 33.33-4.66L33.33-4.66Q33.33-3.74 31.91-2.81L31.91-2.81Q29.27-1.07 27.47-0.54L27.47-0.54Q24.07 0.46 20.34 0.46 16.6 0.46 13.15-0.87 9.69-2.2 7.25-4.59L7.25-4.59Q2.15-9.62 2.15-17.58L2.15-17.58Q2.15-21.41 3.59-24.62 5.03-27.83 7.57-30.13L7.57-30.13Q12.94-34.99 21.07-34.99L21.07-34.99Q25.63-34.99 29.1-33.42L29.1-33.42Q32.79-31.79 32.79-30.64L32.79-30.64Q32.79-30.18 32.48-29.83 32.18-29.49 31.79-29.49L31.79-29.49Q31.01-29.49 30.37-30.19 29.74-30.88 28.65-31.45 27.56-32.01 26.27-32.42L26.27-32.42Q23.63-33.23 21.47-33.23 19.31-33.23 17.9-32.93L17.9-32.93 17.9-1.64Q19.6-1.34 20.92-1.34 22.24-1.34 23.61-1.51 24.98-1.68 26.29-2.08L26.29-2.08Q29.25-2.95 30.74-4.66L30.74-4.66Q31.27-5.3 31.59-5.54 31.91-5.79 32.32-5.79ZM55.61 0L55.61-1.61Q52.49 0.46 48.68 0.46L48.68 0.46Q43.63 0.46 40.57-2.08L40.57-2.08Q37.4-4.69 37.4-9.33L37.4-9.33Q37.4-13.43 40.55-16.06L40.55-16.06Q43.77-18.73 49.02-18.73L49.02-18.73Q52.54-18.73 55.61-17.38L55.61-17.38 55.61-24.1Q53.39-24.73 51.69-24.73 50-24.73 48.83-24.58 47.65-24.44 46.6-24.15L46.6-24.15Q44.33-23.51 43.16-22.44L43.16-22.44Q42.48-21.8 41.92-21.8 41.35-21.8 41.06-22.08 40.77-22.36 40.77-22.71 40.77-23.05 40.89-23.33 41.01-23.61 41.35-23.9L41.35-23.9Q42.09-24.54 43.8-25.17L43.8-25.17Q47.34-26.51 50.9-26.51L50.9-26.51Q61.74-26.51 64.74-21.34L64.74-21.34Q66.06-19.04 66.06-15.31L66.06-15.31 66.06 0 55.61 0ZM55.61-3.71L55.61-15.48Q52.54-16.97 49.48-16.97L49.48-16.97Q49-16.97 48.56-16.89L48.56-16.89 48.56-1.37Q48.68-1.34 48.83-1.34 48.97-1.34 49.12-1.34L49.12-1.34Q52.46-1.34 55.61-3.71L55.61-3.71ZM73.7 0L73.7-26.07 84.2-26.07 84.2-18.41Q85.88-22.58 87.82-24.55 89.77-26.51 91.72-26.51L91.72-26.51Q92.82-26.51 93.46-25.94 94.11-25.37 94.11-24.66 94.11-23.95 93.92-23.54 93.72-23.12 93.4-22.83L93.4-22.83Q92.74-22.22 92.16-22.22L92.16-22.22Q91.23-22.22 90.79-22.41L90.79-22.41Q90.03-22.75 89.45-22.75 88.86-22.75 87.96-21.81 87.06-20.87 86.23-19.21L86.23-19.21Q84.2-15.16 84.2-10.42L84.2-10.42 84.2 0 73.7 0ZM95.82 0.27L95.82 0.27Q94.82 0.27 94.82-0.68L94.82-0.68Q94.82-1.42 95.89-2.34L95.89-2.34Q96.87-3.25 97.48-4.1L97.48-4.1Q97.48-4.1 104.24-13.96L104.24-13.96 94.33-34.55 107.27-34.55 113.13-22.34 118.23-29.66Q119.65-31.76 120.33-33.59L120.33-33.59Q120.87-34.81 121.79-34.81 122.72-34.81 122.72-33.76L122.72-33.76Q122.72-33.18 121.45-31.27L121.45-31.27 114.13-20.26 123.89 0 111 0 105.27-11.87 99.02-2.88Q97.16-0.29 96.4 0.12L96.4 0.12Q96.11 0.27 95.82 0.27Z" opacity="1" transform="matrix(1,0,0,1,0,0)" fill="#000000" class="wordmark-text-0" data-fill-palette-color="primary" id="text-0"></path></svg></g></svg></g></svg></g></svg></g></svg></g><defs></defs></svg><rect width="395.52" height="115.15841989171847" fill="none" stroke="none" visibility="hidden"></rect></g></svg></g></svg>